<?xml version="1.0" encoding="UTF-8" standalone="no"?>
<svg
   xmlns:dc="http://purl.org/dc/elements/1.1/"
   xmlns:cc="http://creativecommons.org/ns#"
   xmlns:rdf="http://www.w3.org/1999/02/22-rdf-syntax-ns#"
   xmlns:svg="http://www.w3.org/2000/svg"
   xmlns="http://www.w3.org/2000/svg"
   xmlns:sodipodi="http://sodipodi.sourceforge.net/DTD/sodipodi-0.dtd"
   xmlns:inkscape="http://www.inkscape.org/namespaces/inkscape"
   version="1.1"
   id="svg2"
   xml:space="preserve"
   width="507.30667"
   height="494.05334"
   viewBox="0 0 507.30667 494.05334"
   sodipodi:docname="Bengal.eps"><metadata
     id="metadata8"><rdf:RDF><cc:Work
         rdf:about=""><dc:format>image/svg+xml</dc:format><dc:type
           rdf:resource="http://purl.org/dc/dcmitype/StillImage" /></cc:Work></rdf:RDF></metadata><defs
     id="defs6" /><sodipodi:namedview
     pagecolor="#ffffff"
     bordercolor="#666666"
     borderopacity="1"
     objecttolerance="10"
     gridtolerance="10"
     guidetolerance="10"
     inkscape:pageopacity="0"
     inkscape:pageshadow="2"
     inkscape:window-width="640"
     inkscape:window-height="480"
     id="namedview4" /><g
     id="g10"
     inkscape:groupmode="layer"
     inkscape:label="ink_ext_XXXXXX"
     transform="matrix(1.3333333,0,0,-1.3333333,0,494.05333)"><g
       id="g12"
       transform="scale(0.1)"><path
         d="m 3625.09,2378.17 c 11.68,1.43 110.98,14.71 179.26,59.59 0.59,0.39 0.69,1.22 0.12,1.66 -22.95,17.78 -401.24,313.2 -507.18,559.61 -0.14,0.33 -0.13,0.66 0.07,0.95 9.5,14.36 249.64,380.28 274.02,704.3 0.06,0.72 -0.56,1.31 -1.26,1.1 -24.47,-7.58 -374.09,-112.96 -907.84,-120.4 -20.4,-0.28 -40.67,3.18 -59.92,9.93 -61.13,21.4 -203.34,70.15 -265.81,82.64 -79.31,15.86 -421.86,-120.19 -433.77,-124.94 -0.05,-0.02 -0.08,0 -0.12,0 -0.05,0.02 -0.19,0.07 -0.24,0.09 -0.05,-0.02 -0.19,-0.07 -0.23,-0.09 -0.04,0 -0.07,-0.02 -0.12,0 -11.91,4.75 -354.47,140.8 -433.78,124.94 -62.45,-12.49 -204.67,-61.24 -265.8,-82.64 -19.26,-6.75 -39.51,-10.21 -59.91,-9.93 -533.76,7.44 -883.381,112.82 -907.853,120.4 -0.696,0.21 -1.313,-0.38 -1.262,-1.1 24.379,-324.02 264.531,-689.94 274.031,-704.3 0.192,-0.29 0.207,-0.62 0.07,-0.95 C 401.613,2752.62 23.3359,2457.2 0.371094,2439.42 -0.1875,2438.98 -0.0898438,2438.15 0.503906,2437.76 68.7852,2392.88 168.078,2379.6 179.754,2378.17 c 0.637,-0.07 0.949,-0.7 0.758,-1.31 -175.10966,-546.65 99.074,-991.03 116.547,-1018.52 0.406,-0.64 1.324,-0.62 1.718,0.01 48.856,78.4 114.633,139.23 123.301,147.1 0.512,0.46 1.203,0.31 1.492,-0.32 6.524,-14.05 72.532,-150.9 225.469,-273.25 152.328,-121.87 236.383,-240.142 245.375,-253.091 0.406,-0.578 1.258,-0.551 1.688,0.02 32.574,44.471 41.976,114.801 43.328,126.341 0.09,0.75 0.968,1.14 1.613,0.74 280.507,-172.749 117.257,-466.48 107.947,-482.71 -0.26,-0.45 -0.09,-0.95 0.32,-1.258 85.27,-65.613 177.47,-88.024 184.27,-89.613 0.26,-0.059 0.48,-0.239 0.62,-0.469 C 1477.56,118.48 1887.91,3.89844 1901.87,0.101563 V 0 c 0.05,0 0.09,-0.0117188 0.18,0 0.01,0 0.07,0.0195313 0.09,0.03125 C 1902.15,0.0195313 1902.2,0 1902.21,0 c 0.09,-0.0117188 0.14,0 0.18,0 v 0.101563 c 0.01,0 0.03,0.007812 0.03,0.007812 0.01,0 0.02,-0.007812 0.03,-0.007812 V 0 c 0.05,0 0.1,-0.0117188 0.18,0 0.01,0 0.07,0.0195313 0.09,0.03125 C 1902.73,0.0195313 1902.79,0 1902.8,0 c 0.09,-0.0117188 0.13,0 0.18,0 V 0.101563 C 1916.94,3.89844 2327.29,118.48 2570.66,531.84 c 0.13,0.23 0.35,0.41 0.61,0.469 6.8,1.589 99.01,24 184.27,89.613 0.41,0.308 0.58,0.808 0.32,1.258 -9.31,16.23 -172.57,309.961 107.95,482.71 0.64,0.4 1.52,0.01 1.6,-0.74 1.36,-11.54 10.76,-81.87 43.33,-126.341 0.43,-0.571 1.28,-0.598 1.69,-0.02 9,12.949 93.05,131.221 245.37,253.091 152.95,122.35 218.96,259.2 225.47,273.25 0.29,0.63 0.99,0.78 1.5,0.32 8.67,-7.87 74.45,-68.7 123.3,-147.1 0.4,-0.63 1.31,-0.65 1.72,-0.01 17.48,27.49 291.66,471.87 116.55,1018.52 -0.2,0.61 0.11,1.24 0.75,1.31"
         style="fill:#231f20;fill-opacity:1;fill-rule:nonzero;stroke:none"
         id="path14" /><path
         d="m 1557.45,2553.38 c -98.83,62.77 -199.76,121.43 -302.5,175.84 -2.22,1.18 -4.57,-1.5 -3.29,-3.83 26.02,-47.52 66.78,-114.78 108.48,-149.54 60.19,-50.15 127.44,-55.64 196.97,-27.57 1.98,0.8 2.18,3.93 0.34,5.1 z m 757.92,-926.86 c -8.28,-7.09 -32.99,-26.77 -47.7,-22.64 -17.87,5.02 -285.86,128.02 -365.23,128.02 h -0.03 c -79.37,0 -347.35,-123 -365.24,-128.02 -14.7,-4.13 -39.41,15.55 -47.7,22.64 -1.25,1.06 -3.15,0.33 -3.37,-1.29 -3.87,-27.67 -22.02,-203.47 112.31,-368.25 1.24,-1.52 3.77,-0.77 3.79,1.19 0.45,37.59 3.35,248.46 12.49,280.45 10.04,35.13 188.86,110.45 287.72,110.45 h 0.03 c 98.86,0 277.67,-75.32 287.71,-110.45 9.15,-31.99 12.05,-242.86 12.49,-280.45 0.03,-1.96 2.57,-2.71 3.81,-1.19 134.32,164.78 116.17,340.58 112.3,368.25 -0.22,1.62 -2.13,2.35 -3.38,1.29 z M 2197.69,883.891 c -10.31,-7.082 -25.76,-14.629 -32.06,-17.61 -1.37,-0.64 -2.86,0.399 -2.9,1.91 -5.2,199.539 -65.02,258.979 -81.12,271.419 -1.47,1.14 -3.5,-0.07 -3.23,-1.91 14.96,-101.25 -27.73,-297.18 -42.1,-304.372 -14.6,-7.289 -73,-31.629 -133.84,-31.629 h -0.03 c -60.84,0 -119.24,24.34 -133.84,31.629 -14.37,7.192 -57.06,203.122 -42.1,304.372 0.27,1.84 -1.76,3.05 -3.23,1.91 -16.1,-12.44 -75.93,-71.88 -81.11,-271.419 -0.04,-1.511 -1.55,-2.55 -2.9,-1.91 -6.3,2.981 -21.77,10.528 -32.07,17.61 -1.55,1.07 -3.63,-0.11 -3.31,-1.961 2.38,-13.282 11.6,-50.719 43.06,-80.231 38.93,-36.488 94.92,-87.578 255.5,-87.578 h 0.03 c 160.57,0 216.57,51.09 255.49,87.578 31.47,29.512 40.69,66.949 43.06,80.231 0.33,1.851 -1.75,3.031 -3.3,1.961 z M 2549.9,2729.22 c -102.75,-54.41 -203.68,-113.07 -302.51,-175.84 -1.83,-1.17 -1.63,-4.3 0.35,-5.1 69.53,-28.07 136.78,-22.58 196.97,27.57 41.69,34.76 82.46,102.02 108.48,149.54 1.27,2.33 -1.07,5.01 -3.29,3.83"
         style="fill:#ffffff;fill-opacity:1;fill-rule:nonzero;stroke:none"
         id="path16" /><path
         d="m 1812.03,3238.57 c -8.71,34.13 -16.27,58.91 -21.57,67.47 -26.74,43.57 -197.43,120.56 -244.34,133.93 -15.07,4.3 -83.68,-18.51 -169.67,-51.36 5,0.13 10,0.23 15.02,0.23 138.85,0 280.25,-50.52 420.56,-150.27 z m -589.29,-336.08 c 80.55,-94.06 474.62,-311.44 526.9,-339.8 l 0.01,0.02 c 0,0.01 -0.01,0.01 -0.02,0.01 0,0.01 -0.01,0.01 -0.02,0.02 -0.02,0.01 -0.05,0.03 -0.08,0.05 -155.66,105.25 -369.46,264.09 -493.24,408.71 -66.13,77.26 -80.23,119.89 -82.69,129.19 0,-0.01 -0.03,-0.01 -0.03,-0.01 0,-0.01 0.02,-0.02 0.02,-0.03 -5.65,-18.13 -28.07,-108.11 49.15,-198.16 z m 394.87,-1036.9 c -121.8,23.81 -254.1,87.13 -270.04,94.9 -0.72,0.35 -1.58,-0.2 -1.55,-1 4.27,-101.26 172.23,-211.45 191.06,-204.31 19.06,7.31 320.47,75.25 322.95,97.66 4.83,104.97 -84.92,198.18 -126.14,219.96 -36.94,19.64 -60.27,-23.18 -64.7,-32.26 -0.36,-0.72 -1.37,-0.79 -1.81,-0.13 -13.13,19.8 -23.21,45.83 -30.51,69.19 l -0.44,0.12 c -49.89,14.18 -97.58,23.93 -141.79,28.99 31.32,-26.3 58.26,-53.42 71.99,-67.75 5.19,-5.43 1.87,-5.4 -1.96,-3.19 -101.85,58.87 -218.01,64.9 -199.28,43.9 35.28,-57.36 220.76,-215.28 253.7,-243.1 3.25,-2.74 0.69,-3.41 -1.48,-2.98 z m -941.102,415.36 c -0.008,-0.09 -0.008,-0.18 -0.012,-0.26 v -0.01 c 0.012,0.09 0.004,0.18 0.012,0.27 z m 567.482,117.59 c 88.63,-22.45 192.81,-17.25 285.16,13.95 l 0.76,-0.99 c 0.07,-0.09 0.15,-0.19 0.22,-0.31 9.85,-14.26 13.89,-30.71 11.58,-46.55 34.43,44.37 37.83,86.05 38.16,93.77 0.03,0.68 -0.59,1.12 -1.24,0.93 -201.26,-57 -384.88,3.64 -408.86,19.13 -0.79,0.5 -1.14,1.35 -0.33,1.82 12.78,7.57 76.27,46.18 69.7,63.45 -1.34,3.57 -9.82,11.41 -22.98,21.43 l -0.2,-0.13 c -37.34,-25.94 -133.62,-41.24 -144.16,-42.84 23.07,-56.72 85.75,-101.76 172.19,-123.66 z m 1884.32,-117.86 0.01,0.01 c -0.01,0.08 -0.01,0.17 -0.02,0.26 0.01,-0.09 0.01,-0.18 0.01,-0.27 z m 366.39,227.24 c -138.15,106.97 -434.25,493.68 -448.95,512.92 -0.35,0.46 -0.17,1.02 0.29,1.35 221.25,155.55 331.83,472.17 342.93,505.27 -7.35,-11.52 -65.72,-101.67 -155.12,-203.47 -115.68,-131.69 -227.27,-220.42 -331.69,-263.72 9.74,-6.97 60.36,-54.76 111.37,-164.99 32.21,-69.63 58.19,-150.43 77.22,-240.15 23.7,-111.8 35.86,-237.79 37.57,-374.44 v 0 c 0.37,-6.41 0.44,-13.07 0.72,-19.54 0.54,-12.18 1.21,-24.26 1.37,-36.73 0.28,-19.43 0.1,-39.23 -0.56,-59.41 -0.02,-0.5 -0.35,-0.87 -0.74,-1.02 -0.16,-0.06 -0.31,0.12 -0.49,0.16 -0.22,0.03 -0.46,-0.04 -0.62,0.19 v 0 c -6.35,9.16 -29.55,41.67 -61.09,74.01 -0.02,0.03 -0.04,0.05 -0.06,0.07 -24.52,25.14 -54.07,50.17 -84.65,64.07 -0.32,0.14 -0.66,0.08 -0.95,-0.08 -0.31,-0.18 -0.54,-0.49 -0.53,-0.9 0.28,-28.95 -0.83,-434.06 -277.54,-683.96 -0.58,-0.52 -1.26,-0.93 -1.64,-0.87 -0.37,0.06 -0.43,0.61 0.21,2.01 0.51,1.07 1.1,2.38 1.77,3.83 0.07,0.15 0.13,0.3 0.19,0.45 10.7,23.75 39.75,95.09 49.94,186.55 l -0.39,1.89 c -29.66,143.57 -94.04,241.73 -191.3,291.83 16.46,-49.39 33.63,-109.71 46.4,-158.06 13.48,-52.42 -48.01,-119.91 -103.29,-190.01 -0.13,-0.16 -0.2,-0.29 -0.21,-0.5 -0.82,-9.69 -25.44,-293.01 -94.55,-443.25 -70.29,-152.72 -157.54,-404.791 -99.43,-569.682 0.02,-0.058 0.03,-0.047 0.04,-0.097 0.2,-1.231 8.25,-56.231 -126.02,-104.211 -108.03,-38.598 -234.61,-98.7 -281.94,-121.66 v -0.051 c -0.03,0 -0.07,0 -0.1,0 -0.11,-0.059 -0.21,-0.02 -0.32,0 -0.03,0 -0.07,0 -0.11,0 v 0.051 c -0.01,0 -0.02,0.011 -0.03,0.011 0,0 -0.01,-0.011 -0.02,-0.011 v -0.051 c -0.03,0 -0.07,0 -0.11,0 -0.11,-0.02 -0.21,-0.059 -0.32,0 -0.02,0 -0.07,0 -0.1,0 v 0.051 c -47.32,22.96 -173.91,83.062 -281.95,121.66 -134.26,47.98 -126.2,102.98 -126.01,104.211 0.01,0.05 0.02,0.039 0.04,0.097 58.11,164.891 -29.13,416.962 -99.43,569.682 -69.1,150.24 -93.72,433.56 -94.54,443.25 -0.02,0.21 -0.09,0.34 -0.22,0.5 -55.28,70.1 -116.76,137.59 -103.29,190.01 12.78,48.35 29.94,108.67 46.39,158.06 -97.25,-50.1 -161.62,-148.26 -191.29,-291.83 l -0.39,-1.89 c 10.2,-91.46 39.24,-162.8 49.94,-186.55 0.06,-0.15 0.13,-0.3 0.2,-0.45 0.66,-1.45 1.26,-2.76 1.76,-3.83 0.65,-1.4 0.58,-1.95 0.21,-2.01 -0.38,-0.06 -1.06,0.35 -1.64,0.87 -276.716,249.9 -277.817,655.01 -277.536,683.96 0.004,0.41 -0.227,0.72 -0.535,0.9 -0.278,0.16 -0.618,0.22 -0.946,0.08 -30.574,-13.9 -60.125,-38.93 -84.64,-64.07 -0.028,-0.02 -0.051,-0.04 -0.071,-0.07 -31.543,-32.34 -54.746,-64.85 -61.086,-74.01 h -0.003 c -0.157,-0.23 -0.399,-0.16 -0.625,-0.19 -0.176,-0.04 -0.321,-0.22 -0.493,-0.16 -0.386,0.15 -0.707,0.52 -0.726,1.02 -0.668,20.18 -0.848,39.98 -0.574,59.41 0.171,12.47 0.832,24.55 1.375,36.73 0.289,6.47 0.355,13.13 0.726,19.54 h -0.004 c 1.707,136.65 13.867,262.64 37.571,374.44 19.027,89.72 45.007,170.52 77.222,240.15 51.008,110.23 101.633,158.02 111.367,164.99 -104.422,43.3 -216.007,132.03 -331.687,263.72 -89.406,101.8 -147.774,191.95 -155.121,203.47 11.097,-33.1 121.687,-349.72 342.926,-505.27 0.468,-0.33 0.64,-0.89 0.289,-1.35 -14.696,-19.24 -310.805,-405.95 -448.942,-512.92 -0.773,-0.6 -0.301,-1.76 0.676,-1.76 h 106.055 c 0.687,0 1.211,-0.56 1.011,-1.22 -7.148,-23.06 -111.593,-367.77 -67.648,-684.15 0.312,-2.25 3.387,-2.79 4.41,-0.77 16.973,33.4 95.766,183.82 175.082,258.82 0.949,0.89 2.5,0.32 2.574,-0.98 2.504,-42.24 41.344,-486.68 571.303,-728.98 0.69,-0.31 1.51,0.15 1.48,0.92 -0.4,10.38 -4.61,70.71 -49.53,179.32 -0.51,1.22 0.59,2.54 1.83,2.1 32.18,-11.38 300.2,-126.2 247.95,-778.072 -0.03,-0.437 0.15,-0.828 0.55,-1.007 4.15,-1.84 29.49,-11.86 68.59,-0.02 0.53,0.16 1.09,-0.051 1.25,-0.57 5.12,-16.719 88.19,-267.031 526.23,-467.563 0.12,-0.047 0.24,-0.008 0.36,0 0.04,0.024 0.08,0.043 0.11,0.063 0.04,-0.02 0.08,-0.039 0.12,-0.063 0.12,-0.008 0.25,-0.047 0.36,0 438.05,200.532 521.12,450.844 526.23,467.563 0.17,0.519 0.73,0.73 1.25,0.57 39.1,-11.84 64.45,-1.82 68.6,0.02 0.4,0.179 0.57,0.57 0.53,1.007 -52.23,651.872 215.79,766.692 247.96,778.072 1.24,0.44 2.35,-0.88 1.84,-2.1 -44.92,-108.61 -49.14,-168.94 -49.53,-179.32 -0.04,-0.77 0.79,-1.23 1.48,-0.92 529.95,242.3 568.79,686.74 571.29,728.98 0.08,1.3 1.63,1.87 2.58,0.98 79.32,-75 158.11,-225.42 175.08,-258.82 1.02,-2.02 4.1,-1.48 4.41,0.77 43.95,316.38 -60.5,661.09 -67.65,684.15 -0.2,0.66 0.33,1.22 1.02,1.22 h 106.06 c 0.96,0 1.44,1.16 0.67,1.76 z m -1219.81,-96.42 0.78,0.99 c 92.34,-31.2 196.53,-36.4 285.16,-13.95 86.44,21.9 149.11,66.94 172.18,123.66 -10.54,1.6 -106.82,16.9 -144.16,42.84 l -0.2,0.13 c -13.16,-10.02 -21.64,-17.86 -22.97,-21.43 -6.58,-17.27 56.91,-55.88 69.69,-63.45 0.8,-0.47 0.46,-1.32 -0.33,-1.82 -23.97,-15.49 -207.6,-76.13 -408.86,-19.13 -0.65,0.19 -1.28,-0.25 -1.24,-0.93 0.33,-7.72 3.73,-49.4 38.17,-93.77 -2.32,15.84 1.73,32.29 11.57,46.55 0.08,0.12 0.16,0.22 0.21,0.31 z m -219.69,151.24 c 0,-0.01 -0.01,-0.01 -0.02,-0.02 0,0 -0.01,0 -0.02,-0.01 l 0.02,-0.02 c 52.28,28.36 446.35,245.74 526.9,339.8 77.21,90.05 54.79,180.03 49.14,198.16 0.01,0.01 0.02,0.02 0.02,0.03 0,0 -0.03,0 -0.03,0.01 -2.46,-9.3 -16.56,-51.93 -82.68,-129.19 -123.79,-144.62 -337.58,-303.46 -493.24,-408.71 -0.03,-0.02 -0.06,-0.04 -0.09,-0.05 z m 373.16,825.87 c -85.99,32.85 -154.6,55.66 -169.66,51.36 -46.92,-13.37 -217.61,-90.36 -244.35,-133.93 -5.3,-8.56 -12.85,-33.34 -21.56,-67.47 140.3,99.75 281.7,150.27 420.56,150.27 5.01,0 10.01,-0.1 15.01,-0.23 z M 2267.74,1755.18 c 18.81,-7.14 186.78,103.05 191.05,204.31 0.04,0.8 -0.83,1.35 -1.54,1 -15.94,-7.77 -148.24,-71.09 -270.05,-94.9 -2.17,-0.43 -4.73,0.24 -1.49,2.98 32.94,27.82 218.43,185.74 253.71,243.1 18.73,21 -97.43,14.97 -199.28,-43.9 -3.83,-2.21 -7.15,-2.24 -1.96,3.19 13.74,14.33 40.68,41.45 72,67.75 -44.22,-5.06 -91.91,-14.81 -141.8,-28.99 l -0.44,-0.12 c -7.29,-23.36 -17.37,-49.39 -30.51,-69.19 -0.45,-0.66 -1.45,-0.59 -1.8,0.13 -4.44,9.08 -27.76,51.9 -64.71,32.26 -41.22,-21.78 -130.97,-114.99 -126.13,-219.96 2.48,-22.41 303.88,-90.35 322.95,-97.66"
         style="fill:#ffffff;fill-opacity:1;fill-rule:nonzero;stroke:none"
         id="path18" /><path
         d="m 1902.42,2630.92 c -323.79,48.53 -407.39,271.97 -414.69,302.97 -0.13,0.53 0.11,0.93 0.47,1.12 0.01,0 0,0.01 0.01,0.01 -0.01,0.02 -0.01,0.04 -0.02,0.06 0.02,-0.02 0.04,-0.04 0.06,-0.05 0.33,0.16 0.76,0.14 1.11,-0.2 102.63,-98.9 298.71,-191.2 413.06,-191.67 114.36,0.47 310.43,92.77 413.06,191.67 0.36,0.34 0.78,0.36 1.12,0.2 0.01,0.01 0.04,0.03 0.05,0.05 0,-0.02 -0.01,-0.04 -0.01,-0.06 v -0.01 c 0.36,-0.19 0.61,-0.59 0.48,-1.12 -7.3,-31 -90.91,-254.44 -414.7,-302.97 z m 1487.39,898.46 c -0.38,0.92 -1.2,1.31 -2.06,1.03 -221.12,-77.5 -628.32,-127.46 -645.54,-129.55 -0.64,-0.07 -1.16,-0.47 -1.41,-1.05 -0.24,-0.59 -0.15,-1.24 0.25,-1.75 54.31,-69.72 113.29,-170.54 124.56,-190.05 0.1,-0.19 0.02,-0.31 -0.02,-0.37 -0.12,-0.12 -0.24,-0.06 -0.29,-0.04 -26.45,11.63 -263.45,115.47 -434.51,180.93 l -0.24,0.05 c -5.74,0.17 -11.48,0.26 -17.22,0.26 -139.1,0 -280.76,-50.68 -421.31,-150.78 l -0.22,-0.15 -0.07,-0.27 c -7.38,-29.03 -16.17,-66.98 -26.1,-112.79 -0.12,-0.56 0.04,-1.15 0.42,-1.59 0.39,-0.43 0.97,-0.64 1.5,-0.58 53.97,5.7 108.06,22.25 148.42,45.44 59.1,33.95 70.26,70.3 69.22,94.81 -0.01,0.07 0,0.25 0.1,0.25 7.19,0.37 72.61,2.95 154,-13.21 105.76,-20.99 190.38,-62.89 251.51,-124.52 0.15,-0.15 0.07,-0.32 0.03,-0.39 -0.04,-0.08 -0.17,-0.18 -0.32,-0.16 -23.14,5.67 -228.76,54.98 -324.65,35.35 -0.59,-0.12 -1.04,-0.49 -1.27,-1.04 -1.61,-3.89 -17.19,-39.21 -65.8,-79 -63.27,-51.79 -151.84,-87.79 -263.24,-106.99 -0.72,-0.12 -1.3,-0.68 -1.45,-1.39 -16.3,-81.44 -29.02,-149.38 -31.41,-162.18 -0.01,-0.04 -0.03,-0.15 -0.13,-0.19 h -0.27 c -0.1,0.04 -0.13,0.15 -0.13,0.19 -2.39,12.8 -15.12,80.74 -31.42,162.18 -0.14,0.71 -0.72,1.27 -1.45,1.39 -111.4,19.2 -199.96,55.2 -263.23,106.99 -48.62,39.79 -64.19,75.11 -65.8,79 -0.22,0.55 -0.68,0.92 -1.27,1.04 -95.89,19.63 -301.52,-29.68 -324.65,-35.35 -0.14,-0.02 -0.29,0.08 -0.32,0.16 -0.05,0.07 -0.12,0.24 0.02,0.39 61.14,61.63 145.76,103.53 251.51,124.52 81.4,16.16 146.82,13.58 154,13.21 0.11,0 0.12,-0.18 0.11,-0.25 -1.04,-24.51 10.11,-60.86 69.22,-94.81 40.36,-23.19 94.46,-39.74 148.42,-45.44 0.52,-0.06 1.11,0.15 1.5,0.58 0.38,0.44 0.54,1.03 0.42,1.59 -9.94,45.81 -18.72,83.76 -26.1,112.79 l -0.08,0.27 -0.22,0.15 c -140.54,100.1 -282.2,150.78 -421.3,150.78 -5.75,0 -11.48,-0.09 -17.22,-0.26 l -0.24,-0.05 C 1203,3323.07 965.996,3219.23 939.543,3207.6 c -0.051,-0.02 -0.164,-0.08 -0.289,0.04 -0.039,0.06 -0.117,0.18 -0.016,0.37 11.266,19.51 70.242,120.33 124.562,190.05 0.4,0.51 0.49,1.16 0.25,1.75 -0.24,0.58 -0.77,0.98 -1.41,1.05 -17.22,2.09 -424.425,52.05 -645.538,129.55 -0.856,0.28 -1.684,-0.11 -2.059,-1.03 l -0.148,-0.36 0.199,-0.31 c 0.562,-0.92 60.601,-96.21 155.902,-204.71 115.688,-131.7 227.274,-220.43 331.692,-263.73 -9.739,-6.97 -60.364,-54.76 -111.368,-164.99 -32.218,-69.63 -58.199,-150.43 -77.222,-240.15 -23.7,-111.8 -35.864,-237.79 -37.575,-374.43 l 0.012,-0.02 c 32.926,543.18 495.105,820.16 495.735,820.49 0.57,0.3 1.15,0.01 1.35,-0.49 0.01,0 0.03,0 0.03,0.01 0,-0.03 0.02,-0.06 0.02,-0.09 0,-0.01 0.01,-0.01 0.01,-0.01 2.52,-9.46 16.72,-52.04 82.66,-129.09 123.76,-144.61 337.52,-303.41 493.18,-408.67 0.03,-0.01 0.09,-0.05 0.12,-0.06 0.01,-0.01 0.01,-0.02 0.02,-0.03 0.01,-0.01 0.01,-0.01 0.02,-0.02 0.01,0 0.01,0 0.02,-0.01 l -0.01,-0.01 c 0.41,-0.28 0.52,-0.78 0.31,-1.25 -59.92,-131.85 -188.23,-195.17 -208.15,-199.51 -0.93,-0.2 -1.45,0.91 -0.86,1.66 0.27,0.35 0.51,0.69 0.77,1.04 2.31,15.84 -1.73,32.29 -11.57,46.55 -0.09,0.12 -0.16,0.22 -0.22,0.31 l -0.77,0.99 c -92.34,-31.2 -196.53,-36.4 -285.16,-13.95 -86.44,21.9 -149.12,66.94 -172.19,123.66 10.54,1.6 106.82,16.9 144.16,42.84 l 0.21,0.14 c -57.44,43.72 -204.78,129.38 -245.759,88.4 -45.172,-45.17 -82.578,-154.02 -89.828,-176.05 -0.344,-1.03 0.859,-1.71 1.625,-0.95 37.734,37.51 107.047,61.69 119.822,65.92 0.83,0.28 1.52,-0.55 1.17,-1.36 -62.445,-145.14 -33.879,-340.28 -30.605,-360.95 0.125,-0.81 1.082,-1.09 1.683,-0.56 172.602,154.02 338.162,136.91 362.132,133.46 0.97,-0.15 1.08,-1.44 0.19,-1.9 -266.6,-138.24 -302.74,-348.67 -285.54,-502.1 l 0.48,2.32 c 29.66,143.53 94,241.68 191.2,291.78 2.08,6.23 4.14,12.31 6.18,18.13 31.56,89.74 84.91,109.18 159.92,75.14 28.08,-12.68 58.56,-34.9 85.77,-57.74 44.22,-5.07 91.92,-14.81 141.82,-29 l 0.4,-0.12 c -8.27,26.52 -12.9,49.55 -14.13,55.98 -0.15,0.79 0.63,1.42 1.38,1.13 21.41,-8.26 237.2,-91.1 278.02,-91.42 0.08,0 0.19,0.02 0.27,0.02 0.09,0 0.19,-0.02 0.28,-0.02 40.82,0.32 256.6,83.16 278.01,91.42 0.76,0.29 1.54,-0.34 1.39,-1.13 -1.23,-6.43 -5.86,-29.46 -14.14,-55.98 l 0.4,0.12 c 49.9,14.19 97.61,23.93 141.83,29 27.2,22.84 57.68,45.06 85.76,57.74 75.01,34.04 128.37,14.6 159.93,-75.14 2.03,-5.82 4.1,-11.9 6.17,-18.13 97.21,-50.1 161.55,-148.25 191.21,-291.78 l 0.48,-2.32 c 17.19,153.43 -18.94,363.86 -285.54,502.1 -0.88,0.46 -0.79,1.75 0.19,1.9 23.97,3.45 189.53,20.56 362.13,-133.46 0.6,-0.53 1.56,-0.25 1.68,0.56 3.28,20.67 31.84,215.81 -30.6,360.95 -0.35,0.81 0.34,1.64 1.17,1.36 12.77,-4.23 82.09,-28.41 119.82,-65.92 0.76,-0.76 1.96,-0.08 1.63,0.95 -7.26,22.03 -44.67,130.88 -89.83,176.05 -40.98,40.98 -188.32,-44.68 -245.76,-88.4 l 0.2,-0.14 c 37.34,-25.94 133.62,-41.24 144.17,-42.84 -23.07,-56.72 -85.75,-101.76 -172.19,-123.66 -88.63,-22.45 -192.82,-17.25 -285.16,13.95 l -0.77,-0.99 c -0.06,-0.09 -0.14,-0.19 -0.22,-0.31 -9.84,-14.26 -13.89,-30.71 -11.57,-46.55 0.26,-0.35 0.5,-0.69 0.77,-1.04 0.59,-0.75 0.07,-1.86 -0.87,-1.66 -19.91,4.34 -148.22,67.66 -208.14,199.51 -0.21,0.47 -0.1,0.97 0.31,1.25 l -0.01,0.01 c 0,0.01 0.01,0.01 0.02,0.01 0,0.01 0.01,0.01 0.02,0.02 0.01,0.01 0.01,0.02 0.02,0.03 0.03,0.01 0.08,0.05 0.11,0.06 155.67,105.26 369.42,264.06 493.19,408.67 65.94,77.05 80.14,119.63 82.66,129.09 0,0 0,0 0,0.01 0.01,0.03 0.02,0.06 0.02,0.09 0.01,-0.01 0.02,-0.01 0.03,-0.01 0.21,0.5 0.78,0.79 1.36,0.49 0.62,-0.33 462.8,-277.31 495.73,-820.49 l 0.01,0.02 c -1.71,136.64 -13.87,262.63 -37.57,374.43 -19.03,89.72 -45.01,170.52 -77.22,240.15 -51.01,110.23 -101.63,158.02 -111.37,164.99 104.42,43.3 216.01,132.03 331.69,263.73 95.3,108.5 155.34,203.79 155.91,204.71 l 0.19,0.31 -0.14,0.36"
         style="fill:#f36717;fill-opacity:1;fill-rule:nonzero;stroke:none"
         id="path20" /></g></g></svg>
