<?xml version="1.0" encoding="UTF-8" standalone="no"?>
<svg
        xmlns="http://www.w3.org/2000/svg"
        version="1.1"
        id="svg2"
        xml:space="preserve"
        width="859.79999"
        height="179.10667"
        viewBox="0 0 859.79999 179.10667"><g
            id="g10"
            transform="matrix(1.3333333,0,0,-1.3333333,0,179.10667)"><g
       id="g12"
       transform="scale(0.1)"><path
         d="M 351.359,863.855 V 752.508 h -173.16 v 144.387 h 312.668 c 1.074,0 1.242,-1.543 0.196,-1.778 z M 777.004,589.027 702.621,557.992 V 446.383 H 529.559 v 144.375 h 247.097 c 0.981,0 1.254,-1.348 0.348,-1.731 z M 880.82,842.945 v 128.852 l -99.207,86.963 h -78.992 v -0.12 H 529.559 v 106.49 h 173.054 v 178.2 H 178.301 v -178.2 H 351.359 V 1058.64 H 99.0742 L 0,971.797 V 677.723 L 99.2109,590.758 H 490.867 c 1.074,0 1.242,-1.543 0.196,-1.778 L 351.359,557.73 V 446.383 h -173.16 v 54.062 H 0 V 371.586 L 99.2109,284.621 H 490.867 c 1.074,0 1.242,-1.543 0.196,-1.769 L 351.359,251.602 V 178.199 H 178.301 V 0 H 702.613 V 178.199 H 529.559 v 106.422 h 252.054 l 99.207,86.965 v 293.965 l -99.207,86.957 H 529.559 v 144.387 h 173.062 v -53.95 H 880.82"
         style="fill:#f36717;fill-opacity:1;fill-rule:nonzero;stroke:none"
         id="path14" /><path
            d="m 5717.05,644.391 c -27.48,8.191 -51.58,16.386 -51.58,36.629 0,15.425 16.39,22.183 35.67,22.183 21.7,0 36.15,-7.715 36.15,-20.254 v -13.976 h 52.54 v 31.328 c 0,37.121 -53.02,51.094 -88.69,51.094 -44.83,0 -96.89,-18.309 -96.89,-70.375 0,-46.758 41.46,-63.622 77.61,-76.161 32.78,-12.05 55.92,-17.343 55.92,-38.078 0,-16.386 -17.36,-25.066 -41.94,-25.066 -25.55,0 -48.21,8.68 -48.21,25.547 v 14.461 h -52.05 v -28.438 c 0,-40.008 54.94,-59.289 99.78,-59.289 56.39,0 103.63,25.07 103.63,74.719 0,48.195 -44.35,63.625 -81.94,75.676 z m 213.54,-98.813 v 200.035 h -99.29 l 0.31,-45.785 h 37.77 v -154.25 h -35.67 v -45.797 h 142.18 l -0.32,45.797 z m -750.21,104.594 c 5.78,32.297 27.96,53.992 59.28,53.992 26.04,0 46.76,-20.25 47.73,-53.992 z m 60.73,101.223 c -73.75,0 -124.84,-53.024 -124.84,-128.696 0,-69.902 50.61,-128.703 132.07,-128.703 61.7,0 99.3,34.223 99.3,34.223 l -23.62,43.379 c 0,0 -31.33,-26.02 -71.34,-26.02 -37.12,0 -69.9,23.137 -73.76,68.449 h 170.17 c 0,0 1.44,13.489 1.44,20.715 0,65.086 -38.56,116.653 -109.42,116.653 z m -461.65,-5.782 h -99.3 l 0.32,-45.785 h 37.76 v -154.25 h -25.88 l -9.79,-45.797 h 132.08 v 45.797 h -35.19 z m 700.75,-59.769 h -0.96 c 0,0 0.96,6.269 0.96,15.426 v 14.46 c 0,20.731 -11.08,29.883 -32.77,29.883 h -64.43 l 0.32,-45.785 h 27.48 c 6.74,0 10.59,-3.863 10.59,-10.609 V 545.578 h -35.66 v -45.797 h 142.18 l -0.32,45.797 h -44.98 v 53.5 c 0,46.277 22.18,89.66 71.83,89.66 8.67,0 14.94,-0.965 14.94,-0.965 v 60.25 c 0,0 -5.3,0.965 -11.08,0.965 -37.61,0 -67.01,-27.953 -78.1,-63.144 z m -861.77,-27.949 c 0,65.07 -29.88,93.5 -82.42,93.5 -61.7,0 -87.73,-47.231 -90.62,-54.95 h -0.97 c 0,0 0.97,5.301 0.97,10.606 v 11.09 c 0,17.351 -10.12,27.472 -31.82,27.472 h -64.59 v -45.785 h 27.48 c 6.75,0 10.61,-3.863 10.61,-10.609 V 545.578 h -35.68 v -45.797 h 132.08 v 45.797 h -35.19 v 64.582 c 0,42.903 26.03,85.328 70.38,85.328 30.85,0 39.04,-20.25 39.04,-50.133 V 499.781 h 96.41 l 9.79,45.797 h -45.47 z m 368.61,41.933 h 27.65 l -42.9,-121.484 c -4.34,-12.528 -5.79,-26.981 -5.79,-26.981 h -1.44 c 0,0 -1.45,14.453 -6.27,26.981 l -42.41,121.484 h 27.47 l -0.32,45.785 h -117.78 v -45.785 h 29.88 l 74.72,-200.047 h 70.38 l 75.2,200.047 h 29.4 l 9.8,45.785 h -127.9 z m 1139.75,0 9.8,45.785 h -65.71 v 67.004 h -59.29 v -67.004 h -39.52 v -45.785 h 37.59 V 589.926 c 0,-82.43 67.97,-92.559 102.68,-92.559 11.08,0 18.79,1.446 18.79,1.446 v 50.136 c 0,0 -4.34,-0.488 -11.09,-0.488 -17.34,0 -49.16,5.781 -49.16,47.727 v 103.64 z M 4185.56,842.027 v -47.73 h 40.98 v -165.34 c 0,-19.762 -3.86,-35.66 -11.57,-48.68 -12.54,-20.242 -35.68,-30.847 -64.11,-30.847 -28.93,0 -52.54,11.082 -64.59,30.371 -7.24,12.051 -11.58,29.394 -11.58,48.679 v 165.817 h 41.77 l -0.31,47.73 h -145.58 v -47.73 h 40.98 V 628.48 c 0,-34.218 7.71,-64.101 25.55,-86.289 23.62,-30.363 65.07,-48.195 113.76,-48.195 45.79,0 88.69,15.902 113.76,48.684 15.9,21.699 25.05,52.55 25.05,85.8 v 165.817 h 41.29 l -0.31,47.73 z m 593.9,0 h -61.7 v -54.48 h 61.7 z m 1532.94,-96.414 0.31,-45.785 h 38.23 L 6306.6,575.465 c -4.83,-12.055 -6.75,-25.551 -6.75,-25.551 h -1.46 c 0,0 -0.95,13.496 -5.3,25.551 l -44.82,124.363 h 28.91 l -0.3,45.785 h -110.89 l -9.79,-45.785 h 29.4 l 84.36,-207.285 -6.75,-15.422 c -7.72,-17.832 -23.62,-28.433 -43.38,-28.433 -22.66,0 -37.12,11.558 -37.12,11.558 l -19.76,-44.82 c 0,0 24.1,-16.875 59.77,-16.875 41.93,0 78.57,20.73 97.36,69.414 l 90.63,231.863 h 27.96 l 9.79,45.785 z m -381.81,96.414 h -61.7 v -54.48 h 61.7 z M 1533.29,545.578 c -35.67,0 -60.74,30.363 -60.74,77.121 0,48.688 27.96,76.164 62.67,76.164 40.49,0 60.26,-37.597 60.26,-77.617 0,-52.531 -29.9,-75.668 -62.19,-75.668 z m 132.07,0 c -6.74,0 -10.6,3.371 -10.6,10.598 v 285.851 h -98.81 l -9.8,-45.797 h 47.87 v -62.179 c 0,-10.129 0.97,-17.356 0.97,-17.356 h -0.97 c 0,0 -18.31,34.7 -70.85,34.7 -66.52,0 -112.32,-50.614 -112.32,-128.696 0,-76.172 41.94,-128.703 107.5,-128.703 61.22,0 80.5,45.793 80.5,45.793 h 0.97 c 0,0 -1.45,-4.344 -1.45,-11.094 v -2.879 c 0,-13.988 9.16,-26.035 31.33,-26.035 h 67.95 l -0.31,45.797 z m 580.87,112.317 c 0,65.07 -31.33,93.5 -85.8,93.5 -42.42,0 -72.79,-26.024 -84.84,-49.649 h -0.95 c 0,0 1.44,8.68 1.44,20.731 v 119.55 h -99.3 l -9.8,-45.797 h 47.88 V 545.578 h -35.67 l -9.8,-45.797 h 142.18 l -0.3,45.797 h -35.19 v 66.996 c 0,45.321 26.99,82.914 70.37,82.914 30.86,0 38.57,-20.25 38.57,-50.133 V 499.781 h 96.89 v 45.797 h -35.68 z m 183.66,-111.836 c -40.01,0 -73.26,30.851 -73.26,76.64 0,45.313 33.25,76.641 73.26,76.641 39.53,0 72.79,-31.328 72.79,-76.641 0,-45.789 -33.26,-76.64 -72.79,-76.64 z m -0.48,205.336 c -74.72,0 -134.97,-53.5 -134.97,-128.696 0,-75.683 60.25,-128.703 135.45,-128.703 74.72,0 134.97,53.02 134.97,128.703 0,75.196 -60.25,128.696 -135.45,128.696 z M 1243.1,794.297 h 40.97 V 547.016 h -40.97 v -47.235 h 145.57 v 47.235 h -41.45 v 247.281 h 41.45 v 47.73 H 1243.1 Z M 3666.86,650.172 c 5.78,32.297 27.96,53.992 59.3,53.992 26.02,0 46.75,-20.25 47.71,-53.992 z m 60.73,101.223 c -73.75,0 -124.84,-53.024 -124.84,-128.696 0,-69.902 50.62,-128.703 132.08,-128.703 61.7,0 99.3,34.223 99.3,34.223 l -23.63,43.379 c 0,0 -31.32,-26.02 -71.33,-26.02 -37.12,0 -69.9,23.137 -73.75,68.449 h 170.15 c 0,0 1.45,13.489 1.45,20.715 0,65.086 -38.57,116.653 -109.43,116.653 z M 3320.72,606.313 c 0,-30.848 -23.61,-66.524 -56.88,-66.524 -22.65,0 -35.67,15.418 -35.67,33.742 0,37.117 58.33,40.977 82.43,40.977 h 10.12 z m 71.35,-60.735 c -6.75,0 -10.61,3.371 -10.61,10.598 v 98.332 c 0,62.664 -35.18,96.887 -101.23,96.887 -59.29,0 -97.37,-30.36 -97.37,-30.36 l 22.65,-42.426 c 0,0 32.79,23.625 69.42,23.625 25.55,0 45.31,-11.086 45.31,-42.425 v -8.184 h -15.42 c -39.53,0 -138.35,-7.715 -138.35,-82.91 0,-50.137 39.53,-74.719 81.47,-74.719 56.88,0 77.6,47.238 77.6,47.238 h 0.97 c 0,0 -1.45,-4.824 -1.45,-12.539 v -2.879 c 0,-13.988 8.68,-26.035 31.33,-26.035 h 58.16 l -0.32,45.797 z m -1526.65,60.735 c 0,-30.848 -23.62,-66.524 -56.88,-66.524 -22.65,0 -35.67,15.418 -35.67,33.742 0,37.117 58.32,40.977 82.42,40.977 h 10.13 z m 60.73,-50.137 v 98.332 c 0,62.664 -35.18,96.887 -101.22,96.887 -59.29,0 -97.37,-30.36 -97.37,-30.36 l 22.65,-42.426 c 0,0 32.78,23.625 69.42,23.625 25.55,0 45.31,-11.086 45.31,-42.425 v -8.184 h -15.43 c -39.52,0 -138.34,-7.715 -138.34,-82.91 0,-50.137 39.52,-74.719 81.46,-74.719 56.88,0 77.61,47.238 77.61,47.238 h 0.96 c 0,0 -1.44,-4.824 -1.44,-12.539 v -2.879 c 0,-13.988 8.67,-26.035 31.33,-26.035 h 48.05 l 9.79,45.797 h -22.17 c -6.75,0 -10.61,3.371 -10.61,10.598 z m 927.95,142.687 c -35.67,13.489 -67.48,24.578 -67.48,55.907 0,26.035 23.14,37.609 51.09,37.609 25.55,0 51.1,-9.168 51.1,-26.516 v -23.144 h 57.36 v 44.828 c 0,39.531 -54.47,60.262 -108.46,60.262 -58.8,0 -114.72,-26.516 -114.72,-95.446 0,-61.215 44.82,-81.945 90.62,-99.3 39.53,-15.422 78.57,-26.504 78.57,-61.211 0,-27.473 -24.59,-42.422 -59.29,-42.422 -32.29,0 -60.25,13.015 -60.25,35.183 v 25.547 h -57.37 v -39.031 c 0,-51.582 60.74,-77.133 117.62,-77.133 64.6,0 123.41,32.297 123.41,102.192 0,64.109 -51.1,84.351 -102.2,102.675 z m 283.74,0.965 10.46,45.785 h -65.71 v 67.004 h -59.29 v -67.004 h -39.52 v -45.785 h 37.6 V 589.926 c 0,-82.43 67.96,-92.559 102.67,-92.559 11.08,0 18.8,1.446 18.8,1.446 v 50.136 c 0,0 -4.34,-0.488 -11.09,-0.488 -17.35,0 -49.17,5.781 -49.17,47.727 v 103.64 z m 432.91,0 10.46,45.785 h -65.72 v 67.004 h -59.28 v -67.004 h -39.53 v -45.785 h 37.6 V 589.926 c 0,-82.43 67.96,-92.559 102.67,-92.559 11.08,0 18.8,1.446 18.8,1.446 v 50.136 c 0,0 -4.34,-0.488 -11.09,-0.488 -17.35,0 -49.17,5.781 -49.17,47.727 v 103.64 h 55.26"
            style="fill:#231f20;fill-opacity:1;fill-rule:nonzero;stroke:none"
            id="path16"/></g></g></svg>
