<?xml version="1.0" encoding="UTF-8" standalone="no"?>
<svg
        xmlns="http://www.w3.org/2000/svg"
        version="1.1"
        id="svg2"
        xml:space="preserve"
        width="191.90668"
        height="288"
        viewBox="0 0 191.90668 288"><g
     id="g10"
     transform="matrix(1.3333333,0,0,-1.3333333,0,288)"><g
       id="g12"
       transform="scale(0.1)"><path
        d="M 481.012,246.059 H 446.773 V 215.84 h 34.239 z m -329.535,0 V 219.59 h 22.738 v -91.75 c 0,-10.961 -2.145,-19.781 -6.422,-27.012 C 160.84,89.6016 148,83.7188 132.219,83.7188 c -16.047,0 -29.153,6.1406 -35.8401,16.8512 -4.0078,6.692 -6.418,16.309 -6.418,27.008 v 92.012 h 23.1761 l -0.172,26.469 H 32.1875 V 219.59 h 22.7422 v -92.012 c 0,-18.988 4.2773,-35.5663 14.1719,-47.8671 13.1054,-16.8593 36.1054,-26.75 63.1174,-26.75 25.414,0 49.215,8.8282 63.125,27.0079 8.82,12.0429 13.906,29.1602 13.906,47.6092 v 92.012 h 22.91 l -0.176,26.469 z M 391.672,143.898 c 0,36.114 -16.582,51.883 -45.738,51.883 -34.235,0 -48.676,-26.211 -50.278,-30.492 h -0.539 c 0,0 0.539,2.941 0.539,5.883 v 6.148 c 0,9.629 -5.621,15.25 -17.656,15.25 h -35.84 v -25.398 h 15.246 c 3.742,0 5.887,-2.141 5.887,-5.891 V 81.582 H 243.496 V 56.1719 h 73.285 V 81.582 h -19.523 v 35.828 c 0,23.809 14.441,47.352 39.047,47.352 17.121,0 21.664,-11.242 21.664,-27.821 V 56.1719 h 53.496 l 5.437,25.4101 h -25.23 z m 204.523,23.274 h 15.344 L 587.73,99.7617 c -2.406,-6.9531 -3.207,-14.9804 -3.207,-14.9804 h -0.8 c 0,0 -0.805,8.0273 -3.485,14.9804 l -23.535,67.4103 h 15.246 l -0.172,25.398 h -65.355 v -25.398 h 16.586 L 564.465,56.1719 h 39.047 l 41.722,111.0001 h 16.317 l 5.433,25.398 H 596.023 Z M 481.012,192.57 h -55.098 l 0.172,-25.398 h 20.957 v -85.59 h -14.355 l -5.434,-25.4101 h 73.277 V 81.582 h -19.519 z m 747.588,-25.398 5.43,25.398 h -36.45 v 37.18 h -32.9 v -37.18 h -21.92 v -25.398 h 20.85 V 106.18 c 0,-45.7308 37.71,-51.348 56.97,-51.348 6.15,0 10.43,0.7969 10.43,0.7969 v 27.8203 c 0,0 -2.41,-0.2695 -6.15,-0.2695 -9.62,0 -27.28,3.2109 -27.28,26.4803 v 57.512 z M 1001.24,136.41 c -15.244,4.551 -28.611,9.09 -28.611,20.32 0,8.559 9.09,12.309 19.785,12.309 12.036,0 20.066,-4.277 20.066,-11.238 v -7.75 h 29.15 v 17.379 c 0,20.601 -29.42,28.351 -49.216,28.351 -24.875,0 -53.762,-10.16 -53.762,-39.051 0,-25.941 23.008,-35.3 43.067,-42.261 18.195,-6.688 31.031,-9.629 31.031,-21.1174 0,-9.1016 -9.63,-13.9219 -23.277,-13.9219 -14.168,0 -26.746,4.8203 -26.746,14.1797 v 8.0196 H 933.848 V 85.8594 c 0,-22.211 30.488,-32.8985 55.363,-32.8985 31.289,0 57.499,13.8985 57.499,41.4493 0,26.7498 -24.6,35.3088 -45.47,41.9998 z m 118.5,-54.828 V 192.57 h -55.1 l 0.17,-25.398 h 20.95 v -85.59 h -19.78 V 56.1719 h 78.88 l -0.17,25.4101 z m -416.275,58.027 c 3.207,17.93 15.512,29.961 32.894,29.961 14.442,0 25.946,-11.23 26.485,-29.961 z m 33.695,56.172 c -40.918,0 -69.269,-29.422 -69.269,-71.41 0,-38.7812 28.086,-71.4101 73.281,-71.4101 34.238,0 55.098,18.9883 55.098,18.9883 l -13.106,24.0625 c 0,0 -17.383,-14.4297 -39.578,-14.4297 -20.598,0 -38.785,12.8282 -40.926,37.977 h 94.41 c 0,0 0.813,7.48 0.813,11.492 0,36.121 -21.399,64.73 -60.723,64.73 z M 869.836,159.41 h -0.539 c 0,0 0.539,3.481 0.539,8.559 V 176 c 0,11.488 -6.152,16.57 -18.195,16.57 h -35.743 l 0.176,-25.398 h 15.246 c 3.75,0 5.887,-2.141 5.887,-5.891 V 81.582 H 817.414 V 56.1719 h 78.887 l -0.168,25.4101 h -24.961 v 29.68 c 0,25.679 12.305,49.75 39.855,49.75 4.813,0 8.289,-0.532 8.289,-0.532 v 33.43 c 0,0 -2.949,0.531 -6.152,0.531 -20.867,0 -37.176,-15.511 -43.328,-35.031 z m 461.924,7.762 h 21.21 l -24.61,-69.0118 c -2.68,-6.6914 -3.74,-14.1797 -3.74,-14.1797 h -0.8 c 0,0 -0.54,7.4883 -2.95,14.1797 L 1296,167.172 h 16.04 l -0.16,25.398 h -61.53 l -5.44,-25.398 h 16.32 l 46.81,-115.0118 -3.75,-8.5704 c -4.28,-9.8906 -13.11,-15.7695 -24.07,-15.7695 -12.57,0 -20.59,6.418 -20.59,6.418 L 1248.66,9.35156 c 0,0 13.37,-9.35156 33.17,-9.35156 23.26,0 43.59,11.5 54.02,38.5117 l 50.28,128.6603 h 15.52 l 5.43,25.398 h -75.5 z M 1085.5,215.84 h 34.24 v 30.219 h -34.24 z m -203.379,65.922 c 35.84,0 68.465,17.918 68.465,56.707 0,35.562 -28.348,46.793 -56.699,56.961 -19.793,7.492 -37.442,13.64 -37.442,31.019 0,14.449 12.832,20.871 28.352,20.871 14.168,0 28.348,-5.082 28.348,-14.711 v -12.847 h 31.828 v 24.879 c 0,21.929 -30.227,33.437 -60.176,33.437 -32.629,0 -63.664,-14.707 -63.664,-52.957 0,-33.973 24.875,-45.473 50.285,-55.101 21.934,-8.559 43.602,-14.711 43.602,-33.969 0,-15.242 -13.641,-23.531 -32.899,-23.531 -17.922,0 -33.437,7.218 -33.437,19.519 v 14.18 h -31.829 v -21.668 c 0,-28.61 33.704,-42.789 65.266,-42.789 z m 169.209,114.207 5.8,25.41 h -36.46 v 37.172 H 987.773 V 421.379 H 965.84 v -25.41 h 20.859 V 334.98 c 0,-45.73 37.721,-51.351 56.971,-51.351 6.16,0 10.43,0.801 10.43,0.801 v 27.832 c 0,0 -2.41,-0.282 -6.15,-0.282 -9.63,0 -27.28,3.2 -27.28,26.489 v 57.5 z m 293.52,-27.547 c 3.22,17.918 15.52,29.957 32.91,29.957 14.44,0 25.94,-11.238 26.48,-29.957 z m 94.42,-8.57 c 0,36.117 -21.4,64.726 -60.71,64.726 -40.92,0 -69.27,-29.406 -69.27,-71.406 0,-38.793 28.08,-71.41 73.28,-71.41 34.24,0 55.1,18.988 55.1,18.988 l -13.11,24.059 c 0,0 -17.38,-14.43 -39.58,-14.43 -20.59,0 -38.79,12.84 -40.93,37.98 h 94.42 c 0,0 0.8,7.493 0.8,11.493 z m -292.09,-11.231 h 5.61 v -4.539 c 0,-17.121 -13.09,-36.91 -31.55,-36.91 -12.58,0 -19.79,8.547 -19.79,18.719 0,20.589 32.36,22.73 45.73,22.73 z m -34.77,-66.859 c 31.57,0 43.06,26.207 43.06,26.207 h 0.54 c 0,0 -0.8,-2.68 -0.8,-6.957 v -1.602 c 0,-7.75 4.81,-14.441 17.38,-14.441 h 32.26 l -0.16,25.41 h -12.31 c -3.74,0 -5.88,1.883 -5.88,5.883 v 54.558 c 0,34.77 -19.53,53.758 -56.17,53.758 -32.9,0 -54.03,-16.848 -54.03,-16.848 l 12.58,-23.531 c 0,0 18.18,13.102 38.51,13.102 14.17,0 25.14,-6.153 25.14,-23.539 v -4.543 h -8.55 c -21.94,0 -76.77,-4.278 -76.77,-46 0,-27.821 21.93,-41.457 45.2,-41.457 z m -589.773,83.976 v -80.769 h 53.761 v 25.41 h -19.796 v 62.312 c 0,36.118 -17.383,51.887 -47.606,51.887 -23.535,0 -40.387,-14.43 -47.074,-27.547 h -0.535 c 0,0 0.801,4.809 0.801,11.5 v 66.328 H 407.09 l -5.434,-25.41 h 26.567 V 310.379 H 408.43 l -5.438,-25.41 h 78.895 l -0.172,25.41 h -19.527 v 37.172 c 0,25.14 14.98,46.008 39.05,46.008 17.117,0 21.399,-11.239 21.399,-27.821 z M 162.086,395.43 c 22.465,0 33.434,-20.86 33.434,-43.071 0,-29.14 -16.582,-41.98 -34.504,-41.98 -19.789,0 -33.7,16.851 -33.7,42.793 0,27.008 15.512,42.258 34.77,42.258 z m -9.359,-113.668 c 33.968,0 44.668,25.41 44.668,25.41 h 0.531 c 0,0 -0.801,-2.41 -0.801,-6.16 v -1.602 c 0,-7.75 5.082,-14.441 17.383,-14.441 h 37.707 l -0.18,25.41 h -17.738 c -3.738,0 -5.883,1.883 -5.883,5.883 V 474.859 H 173.59 l -5.434,-25.41 h 26.563 v -34.488 c 0,-5.621 0.531,-9.629 0.531,-9.629 h -0.531 c 0,0 -10.168,19.246 -39.321,19.246 -36.906,0 -62.316,-28.09 -62.316,-71.406 0,-42.262 23.273,-71.41 59.645,-71.41 z M 80.7734,311.18 H 57.7695 v 137.211 h 23.0039 v 26.468 H 0 V 448.391 H 22.7344 V 311.18 H 0 V 284.969 H 80.7734 Z M 1294.31,284.43 v 27.832 c 0,0 -2.41,-0.282 -6.15,-0.282 -9.63,0 -27.29,3.2 -27.29,26.489 v 57.5 h 30.65 l 5.82,25.41 h -36.47 v 37.172 h -32.9 v -37.172 h -21.92 v -25.41 h 20.86 V 334.98 c 0,-45.73 37.71,-51.351 56.97,-51.351 6.14,0 10.43,0.801 10.43,0.801 z M 658.512,395.691 c 21.929,0 40.386,-17.382 40.386,-42.519 0,-25.41 -18.457,-42.531 -40.386,-42.531 -22.203,0 -40.653,17.121 -40.653,42.531 0,25.137 18.45,42.519 40.653,42.519 z m 0,-113.929 c 41.457,0 74.886,29.418 74.886,71.41 0,41.719 -33.429,71.406 -75.156,71.406 -41.461,0 -74.887,-29.687 -74.887,-71.406 0,-41.992 33.426,-71.41 75.157,-71.41 z m -318.828,66.859 h 5.621 v -4.539 c 0,-17.121 -13.106,-36.91 -31.563,-36.91 -12.57,0 -19.793,8.547 -19.793,18.719 0,20.589 32.36,22.73 45.735,22.73 z m -34.77,-66.859 c 31.563,0 43.063,26.207 43.063,26.207 h 0.535 c 0,0 -0.801,-2.68 -0.801,-6.957 v -1.602 c 0,-7.75 4.816,-14.441 17.383,-14.441 h 26.66 l 5.434,25.41 h -12.297 c -3.746,0 -5.887,1.883 -5.887,5.883 v 54.558 c 0,34.77 -19.524,53.758 -56.164,53.758 -32.902,0 -54.031,-16.848 -54.031,-16.848 l 12.57,-23.531 c 0,0 18.187,13.102 38.516,13.102 14.175,0 25.14,-6.153 25.14,-23.539 v -4.543 h -8.558 c -21.93,0 -76.758,-4.278 -76.758,-46 0,-27.821 21.929,-41.457 45.195,-41.457"
        style="fill:#231f20;fill-opacity:1;fill-rule:nonzero;stroke:none"
        id="path14" /><path
        d="m 624.551,1647.95 v -118.92 h -184.93 v 154.19 h 333.914 c 1.145,0 1.328,-1.65 0.207,-1.89 z M 1079.12,1354.44 999.688,1321.3 V 1202.09 H 814.855 v 154.2 h 263.895 c 1.05,0 1.34,-1.45 0.37,-1.85 z m 110.87,271.17 v 137.61 l -105.95,92.87 h -84.352 v -0.13 H 814.855 v 113.73 H 999.668 V 2160 H 439.734 V 1969.69 H 624.551 V 1855.96 H 355.117 l -105.804,-92.74 v -314.06 l 105.953,-92.87 h 418.269 c 1.145,0 1.328,-1.65 0.207,-1.9 l -149.191,-33.38 v -118.92 h -184.93 v 57.74 H 249.313 v -137.6 l 105.953,-92.88 h 418.269 c 1.145,0 1.328,-1.65 0.207,-1.9 L 624.551,994.07 V 915.691 H 439.734 V 725.379 H 999.668 V 915.691 H 814.855 v 113.659 h 269.185 l 105.95,92.88 v 313.93 l -105.95,92.87 H 814.855 v 154.19 h 184.833 v -57.61 h 190.302"
        style="fill:#f36717;fill-opacity:1;fill-rule:nonzero;stroke:none"
        id="path16"/></g></g></svg>
