<?xml version="1.0" encoding="UTF-8" standalone="no"?>
<svg
   xmlns:dc="http://purl.org/dc/elements/1.1/"
   xmlns:cc="http://creativecommons.org/ns#"
   xmlns:rdf="http://www.w3.org/1999/02/22-rdf-syntax-ns#"
   xmlns:svg="http://www.w3.org/2000/svg"
   xmlns="http://www.w3.org/2000/svg"
   xmlns:sodipodi="http://sodipodi.sourceforge.net/DTD/sodipodi-0.dtd"
   xmlns:inkscape="http://www.inkscape.org/namespaces/inkscape"
   version="1.1"
   id="svg2"
   xml:space="preserve"
   width="708.08002"
   height="239.03999"
   viewBox="0 0 708.08002 239.03999"
   sodipodi:docname="ISU-stacked.eps"><metadata
     id="metadata8"><rdf:RDF><cc:Work
         rdf:about=""><dc:format>image/svg+xml</dc:format><dc:type
           rdf:resource="http://purl.org/dc/dcmitype/StillImage" /></cc:Work></rdf:RDF></metadata><defs
     id="defs6" /><sodipodi:namedview
     pagecolor="#ffffff"
     bordercolor="#666666"
     borderopacity="1"
     objecttolerance="10"
     gridtolerance="10"
     guidetolerance="10"
     inkscape:pageopacity="0"
     inkscape:pageshadow="2"
     inkscape:window-width="640"
     inkscape:window-height="480"
     id="namedview4" /><g
     id="g10"
     inkscape:groupmode="layer"
     inkscape:label="ink_ext_XXXXXX"
     transform="matrix(1.3333333,0,0,-1.3333333,0,239.04)"><g
       id="g12"
       transform="scale(0.1)"><path
         d="M 468.93,1152.92 V 1004.31 H 237.828 v 192.7 h 417.289 c 1.438,0 1.66,-2.06 0.266,-2.38 z M 1037,786.129 937.734,744.711 V 595.75 h -230.98 v 192.691 h 329.786 c 1.31,0 1.67,-1.812 0.46,-2.312 z m 138.56,338.881 v 171.97 l -132.41,116.06 H 937.734 v -0.16 H 706.754 V 1555 h 230.965 v 237.83 H 237.969 V 1555 H 468.93 V 1412.88 H 132.227 L 0,1296.98 V 904.5 L 132.406,788.441 h 522.711 c 1.438,0 1.66,-2.062 0.266,-2.371 L 468.93,744.352 V 595.75 H 237.828 v 72.148 H 0 V 495.93 L 132.406,379.871 h 522.711 c 1.438,0 1.66,-2.062 0.266,-2.383 L 468.93,335.789 V 237.832 H 237.969 V 0 h 699.75 V 237.832 H 706.754 v 142.039 h 336.396 l 132.41,116.059 v 392.32 l -132.41,116.06 H 706.754 v 192.7 h 230.98 v -72 h 237.826"
         style="fill:#f36717;fill-opacity:1;fill-rule:nonzero;stroke:none"
         id="path14" /><path
         d="m 2053.09,848.344 v -65.356 h 56.1 V 556.602 c 0,-27.063 -5.27,-48.84 -15.84,-66.661 -17.16,-27.722 -48.84,-42.25 -87.79,-42.25 -39.59,0 -71.94,15.18 -88.44,41.59 -9.9,16.508 -15.84,40.258 -15.84,66.66 v 227.047 h 57.19 l -0.43,65.356 h -199.33 v -65.356 h 56.1 V 555.941 c 0,-46.859 10.57,-87.781 34.98,-118.152 32.35,-41.578 89.11,-66 155.77,-66 62.72,0 121.45,21.77 155.78,66.66 21.78,29.711 34.32,71.949 34.32,117.492 v 227.047 h 56.53 l -0.42,65.356 z M 4150.17,577.719 c -37.62,11.23 -70.61,22.441 -70.61,50.16 0,21.121 22.43,30.383 48.83,30.383 29.71,0 49.51,-10.571 49.51,-27.742 v -19.129 h 71.94 v 42.898 c 0,50.82 -72.6,69.949 -121.45,69.949 -61.38,0 -132.67,-25.066 -132.67,-96.359 0,-64.02 56.78,-87.109 106.27,-104.289 44.89,-16.5 76.57,-23.75 76.57,-52.129 0,-22.449 -23.77,-34.332 -57.42,-34.332 -34.99,0 -66.01,11.883 -66.01,34.98 v 19.801 h -71.29 v -38.93 c 0,-54.8 75.25,-81.191 136.63,-81.191 77.23,0 141.92,34.32 141.92,102.313 0,65.988 -60.73,87.109 -112.22,103.617 z M 2866.32,773.75 v 74.594 h -84.48 V 773.75 Z M 3415.3,585.641 c 7.92,44.23 38.29,73.929 81.19,73.929 35.64,0 64.02,-27.73 65.34,-73.929 z m 83.16,138.597 c -100.98,0 -170.95,-72.597 -170.95,-176.218 0,-95.711 69.31,-176.231 180.85,-176.231 84.5,0 135.98,46.859 135.98,46.859 L 3612,478.051 c 0,0 -42.9,-35.629 -97.69,-35.629 -50.82,0 -95.71,31.68 -100.99,93.726 h 232.99 c 0,0 1.99,18.473 1.99,28.372 0,89.121 -52.81,159.718 -149.84,159.718 z m 327.41,-89.75 h -1.31 c 0,0 1.31,8.582 1.31,21.121 v 19.801 c 0,28.379 -15.17,40.922 -44.88,40.922 h -88.21 l 0.43,-62.691 h 37.62 c 9.24,0 14.52,-5.301 14.52,-14.532 V 442.422 h -48.84 v -62.723 h 194.69 l -0.42,62.723 h -61.61 v 73.25 c 0,63.367 30.37,122.777 98.35,122.777 11.88,0 20.47,-1.32 20.47,-1.32 v 82.492 c 0,0 -7.26,1.328 -15.18,1.328 -51.49,0 -91.75,-38.277 -106.94,-86.461 z m 1139.96,19.153 h 52.34 l -60.72,-170.309 c -6.61,-16.492 -9.24,-34.973 -9.24,-34.973 h -1.98 c 0,0 -1.32,18.481 -7.26,34.973 l -61.39,170.309 h 39.6 l -0.43,62.691 h -151.82 l -13.42,-62.691 h 40.26 l 115.51,-283.84 -9.24,-21.121 c -10.55,-24.43 -32.34,-38.942 -59.4,-38.942 -31.03,0 -50.82,15.844 -50.82,15.844 l -27.06,-61.391 c 0,0 32.99,-23.089 81.84,-23.089 57.42,0 107.59,28.378 133.32,95.039 l 124.09,317.5 h 38.3 l 13.4,62.691 H 4965.4 Z m -2319.98,-57.43 c 0,89.109 -40.92,128.027 -112.87,128.027 -84.49,0 -120.13,-64.668 -124.09,-75.238 h -1.32 c 0,0 1.32,7.262 1.32,14.531 v 15.18 c 0,23.75 -13.86,37.621 -43.56,37.621 h -88.45 v -62.691 h 37.62 c 9.24,0 14.52,-5.301 14.52,-14.532 V 442.422 h -48.84 v -62.723 h 180.86 v 62.723 h -48.19 v 88.43 c 0,58.75 35.64,116.839 96.37,116.839 42.24,0 53.47,-27.73 53.47,-68.652 v -199.34 h 132 l 13.41,62.723 h -62.25 z M 4358.1,773.75 h 84.48 v 74.594 h -84.48 z m 84.48,-331.328 v 273.91 h -135.96 l 0.43,-62.691 h 51.71 V 442.422 h -48.84 v -62.723 h 194.68 l -0.42,62.723 z m 268.68,211.219 13.41,62.691 h -89.97 v 91.75 h -81.19 v -91.75 h -54.12 v -62.691 h 51.48 v -150.5 c 0,-112.871 93.07,-126.731 140.59,-126.731 15.19,0 25.74,1.969 25.74,1.969 v 68.66 c 0,0 -5.94,-0.668 -15.17,-0.668 -23.76,0 -67.33,7.918 -67.33,65.348 v 141.922 z m -1844.94,62.691 h -135.96 l 0.42,-62.691 h 51.72 V 442.422 h -35.43 l -13.42,-62.723 h 180.86 v 62.723 h -48.19 z m 284.26,-62.691 h 37.86 l -58.75,-166.352 c -5.94,-17.16 -7.92,-36.949 -7.92,-36.949 h -1.97 c 0,0 -1.98,19.789 -8.58,36.949 l -58.09,166.352 h 37.62 l -0.42,62.691 h -161.29 v -62.691 h 40.93 l 102.3,-273.942 h 96.37 l 102.97,273.942 h 40.26 l 13.41,62.691 h -175.12 z m 1635.93,414.139 c 0,-112.874 93.07,-126.729 140.58,-126.729 15.19,0 25.75,1.976 25.75,1.976 v 68.653 c 0,0 -5.94,-0.67 -15.18,-0.67 -23.76,0 -67.32,7.92 -67.32,65.36 v 141.9 h 75.64 l 14.33,62.7 h -89.97 v 91.75 h -81.19 v -91.75 h -54.13 v -62.7 h 51.49 z m -182.89,22.44 c 0,-42.24 -32.34,-91.091 -77.88,-91.091 -31.03,0 -48.85,21.121 -48.85,46.211 0,50.83 79.87,56.1 112.87,56.1 h 13.86 z m 97.69,-83.17 c -9.23,0 -14.52,4.63 -14.52,14.52 v 134.65 c 0,85.8 -48.18,132.67 -138.61,132.67 -81.18,0 -133.33,-41.58 -133.33,-41.58 l 31.02,-58.09 c 0,0 44.89,32.35 95.05,32.35 34.98,0 62.04,-15.18 62.04,-58.09 v -11.21 h -21.11 c -54.13,0 -189.44,-10.57 -189.44,-113.53 0,-68.654 54.12,-102.31 111.55,-102.31 77.89,0 106.27,64.69 106.27,64.69 h 1.32 c 0,0 -1.98,-6.612 -1.98,-17.171 v -3.957 c 0,-19.144 11.88,-35.64 42.9,-35.64 h 79.63 l -0.43,62.698 z m 376.29,143.23 c 7.91,44.23 38.28,73.94 81.18,73.94 35.65,0 64.03,-27.74 65.35,-73.94 z m 233,-21.13 c 0,89.12 -52.8,159.74 -149.83,159.74 -101,0 -170.96,-72.61 -170.96,-176.23 0,-95.71 69.31,-176.23 180.85,-176.23 84.49,0 135.98,46.867 135.98,46.867 l -32.35,59.403 c 0,0 -42.9,-35.65 -97.68,-35.65 -50.82,0 -95.72,31.69 -100.99,93.74 h 233 c 0,0 1.98,18.47 1.98,28.36 z m -1926.8,88.46 c 54.12,0 99.67,-42.9 99.67,-104.95 0,-62.7 -45.55,-104.95 -99.67,-104.95 -54.78,0 -100.33,42.25 -100.33,104.95 0,62.05 45.55,104.95 100.33,104.95 z m 0,-281.18 c 102.31,0 184.82,72.61 184.82,176.23 0,102.97 -82.51,176.23 -185.48,176.23 -102.31,0 -184.81,-73.26 -184.81,-176.23 0,-103.62 82.5,-176.23 185.47,-176.23 z m 809.93,131.35 c 0,-112.874 93.06,-126.729 140.58,-126.729 15.19,0 25.74,1.976 25.74,1.976 v 68.653 c 0,0 -5.93,-0.67 -15.17,-0.67 -23.76,0 -67.33,7.92 -67.33,65.36 v 141.9 h 75.66 l 14.31,62.7 h -89.97 v 91.75 h -81.19 v -91.75 h -54.12 v -62.7 h 51.49 z m -1378.25,-60.73 h -48.83 l -13.42,-62.698 h 194.69 l -0.42,62.698 h -48.19 v 91.74 c 0,62.06 36.96,113.54 96.37,113.54 42.24,0 52.81,-27.72 52.81,-68.65 V 944.352 h 132.67 v 62.698 h -48.85 v 153.8 c 0,89.11 -42.9,128.04 -117.49,128.04 -58.09,0 -99.67,-35.63 -116.16,-67.99 h -1.32 c 0,0 1.97,11.89 1.97,28.39 v 163.7 h -135.97 l -13.4,-62.71 h 65.54 z m -204.62,83.17 c 0,-42.24 -32.34,-91.091 -77.89,-91.091 -31.02,0 -48.84,21.121 -48.84,46.211 0,50.83 79.86,56.1 112.87,56.1 h 13.86 z m 97.69,-83.17 c -9.25,0 -14.52,4.63 -14.52,14.52 v 134.65 c 0,85.8 -48.19,132.67 -138.62,132.67 -81.19,0 -133.33,-41.58 -133.33,-41.58 l 31.02,-58.09 c 0,0 44.89,32.35 95.05,32.35 34.99,0 62.05,-15.18 62.05,-58.09 v -11.21 h -21.12 c -54.13,0 -189.44,-10.57 -189.44,-113.53 0,-68.654 54.12,-102.31 111.55,-102.31 77.89,0 106.27,64.69 106.27,64.69 h 1.32 c 0,0 -1.98,-6.612 -1.98,-17.171 v -3.957 c 0,-19.144 11.88,-35.64 42.9,-35.64 h 65.79 l 13.41,62.698 z m 1227.09,-70.62 c 88.44,0 168.96,44.218 168.96,139.94 0,87.78 -69.96,115.49 -139.93,140.58 -48.84,18.48 -92.4,33.66 -92.4,76.56 0,35.64 31.68,51.49 69.96,51.49 34.99,0 69.96,-12.54 69.96,-36.29 v -31.7 h 78.56 v 61.39 c 0,54.12 -74.59,82.51 -148.52,82.51 -80.53,0 -157.09,-36.3 -157.09,-130.7 0,-83.82 61.38,-112.2 124.08,-135.97 54.13,-21.12 107.6,-36.3 107.6,-83.81 0,-37.63 -33.67,-58.1 -81.18,-58.1 -44.23,0 -82.52,17.83 -82.52,48.19 v 34.98 h -78.54 v -53.46 c 0,-70.63 83.16,-105.61 161.06,-105.61 z m -1779.57,70.62 c -48.84,0 -83.17,41.58 -83.17,105.61 0,66.67 38.29,104.29 85.81,104.29 55.45,0 82.51,-51.48 82.51,-106.27 0,-71.94 -40.93,-103.63 -85.15,-103.63 z m 225.05,-62.698 -0.42,62.698 h -43.78 c -9.24,0 -14.52,4.63 -14.52,14.52 v 391.42 h -135.31 l -13.41,-62.71 h 65.55 v -85.14 c 0,-13.87 1.33,-23.76 1.33,-23.76 h -1.33 c 0,0 -25.07,47.51 -97.02,47.51 -91.09,0 -153.8,-69.3 -153.8,-176.23 0,-104.29 57.43,-176.23 147.2,-176.23 83.83,0 110.23,62.699 110.23,62.699 h 1.32 c 0,0 -1.98,-5.941 -1.98,-15.18 v -3.957 c 0,-19.144 12.54,-35.64 42.9,-35.64 z m -423.08,64.688 h -56.76 v 338.6 h 56.76 v 65.35 h -199.33 v -65.35 h 56.1 v -338.6 h -56.1 v -64.688 h 199.33 v 64.688"
         style="fill:#231f20;fill-opacity:1;fill-rule:nonzero;stroke:none"
         id="path16" /></g></g></svg>
