<?xml version="1.0" encoding="UTF-8" standalone="no"?>
<svg
   xmlns="http://www.w3.org/2000/svg"
   version="1.1"
   id="svg2"
   xml:space="preserve"
   width="329.16"
   height="501.98666"
   viewBox="0 0 329.16 501.98666"><g
     id="g10"
     transform="matrix(1.3333333,0,0,-1.3333333,0,501.98667)"><g
       id="g12"
       transform="scale(0.1)"><path
         d="M 984.746,2421.1 V 2109.03 H 499.43 v 404.65 h 876.3 c 3.01,0 3.49,-4.32 0.55,-4.98 z m 1192.944,-770.25 -208.46,-86.98 v -312.84 h -485.06 v 404.66 h 692.54 c 2.75,0 3.52,-3.79 0.98,-4.84 z m 290.96,711.63 v 361.14 l -278.05,243.73 h -221.37 v -0.33 h -485.06 v 298.45 h 485.02 V 3764.9 H 499.723 V 3265.47 H 984.746 V 2967.02 H 277.676 L 0,2723.61 V 1899.42 L 278.059,1655.69 H 1375.73 c 3.01,0 3.49,-4.32 0.55,-4.98 l -391.534,-87.6 V 1251.03 H 499.43 v 151.54 H 0 V 1041.44 L 278.059,797.699 H 1375.73 c 3.01,0 3.49,-4.308 0.56,-4.98 L 984.746,705.129 V 499.422 H 499.723 V 0 H 1969.19 v 499.422 h -485.02 v 298.277 h 706.43 l 278.05,243.741 v 823.85 l -278.05,243.74 h -706.43 v 404.65 h 485.06 v -151.2 h 499.42"
         style="fill:#f36717;fill-opacity:1;fill-rule:nonzero;stroke:none"
         id="path14" /></g></g></svg>
