<?xml version="1.0" encoding="UTF-8" standalone="no"?>
<svg
   xmlns:dc="http://purl.org/dc/elements/1.1/"
   xmlns:cc="http://creativecommons.org/ns#"
   xmlns:rdf="http://www.w3.org/1999/02/22-rdf-syntax-ns#"
   xmlns:svg="http://www.w3.org/2000/svg"
   xmlns="http://www.w3.org/2000/svg"
   xmlns:sodipodi="http://sodipodi.sourceforge.net/DTD/sodipodi-0.dtd"
   xmlns:inkscape="http://www.inkscape.org/namespaces/inkscape"
   version="1.1"
   id="svg2"
   xml:space="preserve"
   width="389.14667"
   height="593.47998"
   viewBox="0 0 389.14667 593.47998"
   sodipodi:docname="SpiritMark-Gray.eps"><metadata
     id="metadata8"><rdf:RDF><cc:Work
         rdf:about=""><dc:format>image/svg+xml</dc:format><dc:type
           rdf:resource="http://purl.org/dc/dcmitype/StillImage" /></cc:Work></rdf:RDF></metadata><defs
     id="defs6" /><sodipodi:namedview
     pagecolor="#ffffff"
     bordercolor="#666666"
     borderopacity="1"
     objecttolerance="10"
     gridtolerance="10"
     guidetolerance="10"
     inkscape:pageopacity="0"
     inkscape:pageshadow="2"
     inkscape:window-width="640"
     inkscape:window-height="480"
     id="namedview4" /><g
     id="g10"
     inkscape:groupmode="layer"
     inkscape:label="ink_ext_XXXXXX"
     transform="matrix(1.3333333,0,0,-1.3333333,0,593.48)"><g
       id="g12"
       transform="scale(0.1)"><path
         d="M 1164.23,2862.4 V 2493.44 H 590.461 v 478.41 H 1626.49 c 3.56,0 4.13,-5.11 0.65,-5.89 z m 1410.38,-910.65 -246.46,-102.83 v -369.85 h -573.46 v 478.41 h 818.77 c 3.26,0 4.15,-4.48 1.15,-5.73 z m 344,841.35 v 426.95 l -328.74,288.15 h -261.72 v -0.39 h -573.46 v 352.87 h 573.43 v 590.45 H 590.813 V 3860.68 H 1164.23 V 3507.81 H 328.285 L 0,3220.05 V 2245.64 L 328.738,1957.48 H 1626.49 c 3.56,0 4.13,-5.11 0.65,-5.89 L 1164.23,1848.02 V 1479.07 H 590.461 v 179.15 H 0 V 1231.27 L 328.738,943.102 H 1626.49 c 3.56,0 4.13,-5.114 0.65,-5.883 L 1164.23,833.648 V 590.461 H 590.813 V 0.0117188 H 2328.12 V 590.461 h -573.43 v 352.641 h 835.18 l 328.74,288.168 v 974.02 l -328.74,288.15 h -835.18 v 478.41 h 573.46 V 2793.1 h 590.46"
         style="fill:#a7a5a6;fill-opacity:1;fill-rule:nonzero;stroke:none"
         id="path14" /></g></g></svg>
