<?xml version="1.0" encoding="UTF-8" standalone="no"?>
<svg
   xmlns:dc="http://purl.org/dc/elements/1.1/"
   xmlns:cc="http://creativecommons.org/ns#"
   xmlns:rdf="http://www.w3.org/1999/02/22-rdf-syntax-ns#"
   xmlns:svg="http://www.w3.org/2000/svg"
   xmlns="http://www.w3.org/2000/svg"
   xmlns:sodipodi="http://sodipodi.sourceforge.net/DTD/sodipodi-0.dtd"
   xmlns:inkscape="http://www.inkscape.org/namespaces/inkscape"
   version="1.1"
   id="svg2"
   xml:space="preserve"
   width="329.16"
   height="501.98666"
   viewBox="0 0 329.16 501.98666"
   sodipodi:docname="Spirit-Black.eps"><metadata
     id="metadata8"><rdf:RDF><cc:Work
         rdf:about=""><dc:format>image/svg+xml</dc:format><dc:type
           rdf:resource="http://purl.org/dc/dcmitype/StillImage" /></cc:Work></rdf:RDF></metadata><defs
     id="defs6" /><sodipodi:namedview
     pagecolor="#ffffff"
     bordercolor="#666666"
     borderopacity="1"
     objecttolerance="10"
     gridtolerance="10"
     guidetolerance="10"
     inkscape:pageopacity="0"
     inkscape:pageshadow="2"
     inkscape:window-width="640"
     inkscape:window-height="480"
     id="namedview4" /><g
     id="g10"
     inkscape:groupmode="layer"
     inkscape:label="ink_ext_XXXXXX"
     transform="matrix(1.3333333,0,0,-1.3333333,0,501.98667)"><g
       id="g12"
       transform="scale(0.1)"><path
         d="M 984.746,2421.1 V 2109.03 H 499.43 v 404.65 h 876.31 c 3.01,0 3.48,-4.32 0.54,-4.98 z m 1192.934,-770.25 -208.46,-86.98 v -312.84 h -485.04 v 404.66 h 692.53 c 2.76,0 3.51,-3.79 0.97,-4.84 z m 290.97,711.63 v 361.14 l -278.05,243.73 h -221.38 v -0.33 h -485.04 v 298.45 h 485.01 V 3764.9 H 499.727 V 3265.47 H 984.746 V 2967.02 H 277.676 L 0,2723.61 V 1899.42 L 278.059,1655.69 H 1375.74 c 3.01,0 3.48,-4.32 0.54,-4.98 l -391.534,-87.6 V 1251.03 H 499.43 v 151.54 H 0 V 1041.44 L 278.059,797.699 H 1375.74 c 3.01,0 3.48,-4.308 0.54,-4.98 L 984.746,705.129 V 499.422 H 499.727 V 0 H 1969.19 v 499.422 h -485.01 v 298.277 h 706.42 l 278.05,243.741 v 823.85 l -278.05,243.74 h -706.42 v 404.65 h 485.04 v -151.2 h 499.43"
         style="fill:#231f20;fill-opacity:1;fill-rule:nonzero;stroke:none"
         id="path14" /></g></g></svg>
